<svg id="Light" xmlns="http://www.w3.org/2000/svg" viewBox="0 0 23 54"><defs><style>.cls-1{fill:#1d1d1f;}</style></defs><title>watch_series_5_large_</title><g id="Apple_Watch_Series_5" data-name="Apple Watch Series 5"><path id="icon" class="cls-1" d="M23,27V22H22V20.33a4.24,4.24,0,0,0-.6-2.16c-.4-.69-1.11-1.27-1.54-1.93a9.76,9.76,0,0,1-1.31-3c-.27-1.15-.18-2.34-.42-3.5a1.76,1.76,0,0,0-1.68-1.4A48.2,48.2,0,0,0,11,8a29.47,29.47,0,0,0-5.89.43A1.53,1.53,0,0,0,4,9.57c-.11.54-.2,1.87-.3,2.63a7.46,7.46,0,0,1-1.88,4.44l-.46.51A4.46,4.46,0,0,0,0,20.33V37.67a4.18,4.18,0,0,0,1.39,3.2A5.84,5.84,0,0,1,3.64,45c.18,1.16,0,2.34.28,3.46a1.62,1.62,0,0,0,1.27,1.11A28.54,28.54,0,0,0,11,50a29,29,0,0,0,5.85-.43A1.53,1.53,0,0,0,18,48.43c.11-.54-.15-3.17.79-4.76.33-.56,1.74-2.67,1.74-2.67s.15-.22.19-.26A4.53,4.53,0,0,0,22,37.67V27ZM21,37.67A3.21,3.21,0,0,1,18,41H4a3.21,3.21,0,0,1-3-3.33V20.33A3.21,3.21,0,0,1,4,17H18a3.21,3.21,0,0,1,3,3.33Z"/></g></svg>