<?xml version="1.0" encoding="utf-8"?>
<!-- Generator: Adobe Illustrator 24.0.0, SVG Export Plug-In . SVG Version: 6.00 Build 0)  -->
<svg version="1.1" id="Light" xmlns="http://www.w3.org/2000/svg" xmlns:xlink="http://www.w3.org/1999/xlink" x="0px" y="0px"
	 viewBox="0 0 36 54" style="enable-background:new 0 0 36 54;" xml:space="preserve">
<style type="text/css">
	.st0{fill:#1D1D1F;}
</style>
<title>watch_hermes_large_</title>
<path id="Apple_Watch_Hermes_1_" class="st0" d="M9.4,29c0-7.7,3-14.3,6.5-17.5c0-0.6,0.1-1,0.1-1.4c-3,0.6-6.9,1.4-7.2,1.5
	C4.2,13,0.5,20.3,0.5,29c0,9,3.9,16.5,8.8,17.4c0.2,0,3.6,0.8,6.7,1.4c0-0.3,0-0.8-0.1-1.4C12.4,43.3,9.4,36.7,9.4,29z M35,22v-1.7
	c0-1.6-0.8-3-2-3.7v-1.7c0-0.6-0.4-0.9-1-0.9H31c-0.1-1.9-0.1-3.8-0.2-4.2c-0.1-0.8-0.5-1.2-1.1-1.5c-1-0.4-10.3-0.5-11.3,0
	c-0.6,0.3-1,0.9-1.1,1.7c-0.1,0.3-0.1,2.1-0.2,4h-0.9c-0.6,0-1.1,0.4-1.1,0.9v1.7c-1.2,0.8-2,2.1-2,3.7v17.3c0,1.6,0.8,3,2,3.8v1.5
	c0,0.6,0.5,1.1,1.1,1.1H17c0.1,1.9,0.1,3.6,0.2,4c0.1,0.8,0.5,1.4,1.1,1.7c1,0.4,10.3,0.4,11.3,0c0.6-0.3,1-0.7,1.1-1.5
	c0.1-0.4,0.1-2.2,0.2-4.2H32c0.6,0,1-0.5,1-1.1v-1.6c1.2-0.8,2-2.1,2-3.7V27h1v-5H35z M31.5,15.1c0.3,0,0.5,0.1,0.5,0.4v0.7
	C31.7,16,31.4,16,31,16h0c0-0.3,0-0.6,0-0.9H31.5z M16,15.5c0-0.3,0.3-0.4,0.6-0.4H17c0,0.3,0,0.6,0,0.9c-0.3,0-0.7,0.1-1,0.1V15.5z
	 M16.6,43.1c-0.3,0-0.6-0.3-0.6-0.6v-0.6c0.3,0.1,0.7,0.1,1,0.1c0,0.3,0,0.7,0,1.1H16.6z M32,42.5c0,0.3-0.2,0.6-0.5,0.6H31
	c0-0.3,0-0.8,0-1.1c0.4,0,0.6-0.1,1-0.2V42.5z M34,37.7c0,1.8-1.3,3.3-3,3.3h-14c-1.7,0-3.1-1.5-3.1-3.3V20.3c0-1.8,1.4-3.3,3.1-3.3
	h14c1.9,0,3,1.5,3,3.3V37.7z"/>
</svg>
